<?xml version="1.0" standalone="no"?>
<!DOCTYPE svg PUBLIC "-//W3C//DTD SVG 20010904//EN"
 "http://www.w3.org/TR/2001/REC-SVG-20010904/DTD/svg10.dtd">
<svg version="1.0" xmlns="http://www.w3.org/2000/svg"
 width="512.000000pt" height="512.000000pt" viewBox="0 0 512.000000 512.000000"
 preserveAspectRatio="xMidYMid meet">

<g transform="translate(0.000000,512.000000) scale(0.100000,-0.100000)"
fill="#000000" stroke="none">
<path d="M2434 4955 c-33 -7 -94 -30 -135 -50 -70 -35 -113 -76 -815 -777
-791 -790 -792 -791 -837 -933 -31 -98 -30 -242 1 -342 88 -284 391 -456 681
-388 138 33 177 61 417 297 121 120 223 218 227 218 4 0 7 -523 7 -1162 0
-1292 -3 -1227 68 -1362 93 -179 303 -306 507 -306 204 0 414 127 507 306 71
135 68 70 68 1367 0 642 3 1167 7 1167 4 0 108 -100 232 -223 191 -188 236
-228 292 -255 171 -83 365 -81 535 6 118 60 235 202 276 335 31 100 32 245 1
342 -45 143 -46 144 -837 933 -701 700 -745 742 -815 777 -124 62 -256 79
-387 50z"/>
</g>
</svg>
